<svg width="44" height="36" viewBox="0 0 44 36" fill="none" xmlns="http://www.w3.org/2000/svg">
<path d="M7.9375 9.40625C7.9375 7.95585 8.51367 6.56485 9.53926 5.53926C10.5648 4.51367 11.9558 3.9375 13.4062 3.9375C14.8567 3.9375 16.2477 4.51367 17.2732 5.53926C18.2988 6.56485 18.875 7.95585 18.875 9.40625C18.875 10.8567 18.2988 12.2477 17.2732 13.2732C16.2477 14.2988 14.8567 14.875 13.4062 14.875C11.9558 14.875 10.5648 14.2988 9.53926 13.2732C8.51367 12.2477 7.9375 10.8567 7.9375 9.40625V9.40625ZM13.4062 0.8125C11.127 0.8125 8.94119 1.71791 7.32955 3.32955C5.71791 4.94119 4.8125 7.12705 4.8125 9.40625C4.8125 11.6855 5.71791 13.8713 7.32955 15.4829C8.94119 17.0946 11.127 18 13.4062 18C15.6855 18 17.8713 17.0946 19.4829 15.4829C21.0946 13.8713 22 11.6855 22 9.40625C22 7.12705 21.0946 4.94119 19.4829 3.32955C17.8713 1.71791 15.6855 0.8125 13.4062 0.8125ZM29.8125 11.75C29.8125 10.9212 30.1417 10.1263 30.7278 9.54029C31.3138 8.95424 32.1087 8.625 32.9375 8.625C33.7663 8.625 34.5612 8.95424 35.1472 9.54029C35.7333 10.1263 36.0625 10.9212 36.0625 11.75C36.0625 12.5788 35.7333 13.3737 35.1472 13.9597C34.5612 14.5458 33.7663 14.875 32.9375 14.875C32.1087 14.875 31.3138 14.5458 30.7278 13.9597C30.1417 13.3737 29.8125 12.5788 29.8125 11.75ZM32.9375 5.5C31.2799 5.5 29.6902 6.15848 28.5181 7.33058C27.346 8.50268 26.6875 10.0924 26.6875 11.75C26.6875 13.4076 27.346 14.9973 28.5181 16.1694C29.6902 17.3415 31.2799 18 32.9375 18C34.5951 18 36.1848 17.3415 37.3569 16.1694C38.529 14.9973 39.1875 13.4076 39.1875 11.75C39.1875 10.0924 38.529 8.50268 37.3569 7.33058C36.1848 6.15848 34.5951 5.5 32.9375 5.5V5.5ZM0.125 25.8125C0.125 24.5693 0.61886 23.377 1.49794 22.4979C2.37701 21.6189 3.5693 21.125 4.8125 21.125H22C23.2432 21.125 24.4355 21.6189 25.3146 22.4979C26.1936 23.377 26.6875 24.5693 26.6875 25.8125V26.1656C26.6845 26.3114 26.674 26.4569 26.6562 26.6016C26.625 26.8719 26.5672 27.2391 26.4531 27.6734C26.153 28.8193 25.6218 29.8918 24.8922 30.825C23.0641 33.1719 19.625 35.1875 13.4062 35.1875C7.1875 35.1875 3.75 33.1719 1.92031 30.825C1.19017 29.8919 0.658455 28.8195 0.357812 27.6734C0.238465 27.2138 0.162095 26.7441 0.129688 26.2703C0.128177 26.2354 0.127135 26.2005 0.126562 26.1656V26.1297L0.125 26.1172V25.8125ZM3.25 26.0906V26.1094C3.27165 26.3721 3.31609 26.6325 3.38281 26.8875C3.52344 27.4312 3.80937 28.1656 4.38437 28.9047C5.48594 30.3172 7.90625 32.0625 13.4062 32.0625C18.9062 32.0625 21.3281 30.3172 22.4281 28.9062C22.8953 28.3083 23.2356 27.6214 23.4281 26.8875C23.4953 26.6325 23.5403 26.3721 23.5625 26.1094L23.5641 26.0906V25.8125C23.5641 25.3981 23.3994 25.0007 23.1064 24.7076C22.8134 24.4146 22.416 24.25 22.0016 24.25H4.8125C4.3981 24.25 4.00067 24.4146 3.70765 24.7076C3.41462 25.0007 3.25 25.3981 3.25 25.8125V26.0906ZM27.4328 31.2688C28.8859 31.7625 30.6938 32.0625 32.9375 32.0625C37.9391 32.0625 40.7813 30.5734 42.3328 28.7422C43.0875 27.8516 43.4734 26.9484 43.6688 26.2547C43.774 25.8827 43.8416 25.5011 43.8703 25.1156L43.8719 25.0594L43.8734 25.025V24.9656C43.8736 24.4612 43.7744 23.9617 43.5815 23.4956C43.3886 23.0296 43.1057 22.6061 42.749 22.2494C42.3923 21.8928 41.9689 21.6099 41.5028 21.4169C41.0367 21.224 40.5372 21.1248 40.0328 21.125H27.2375C28.0187 21.9984 28.5859 23.0672 28.8547 24.25H40.0328C40.4234 24.25 40.7391 24.5609 40.7484 24.9469C40.7331 25.1023 40.7038 25.2561 40.6609 25.4062C40.5641 25.75 40.3641 26.2313 39.9469 26.7234C39.1563 27.6594 37.3109 28.9375 32.9375 28.9375C31.1172 28.9375 29.7359 28.7156 28.6859 28.3906C28.408 29.405 27.986 30.3742 27.4328 31.2688V31.2688Z" fill="#350DD4"/>
</svg>
